<svg width="1em" height="1em" xmlns="http://www.w3.org/2000/svg" xml:space="preserve" viewBox="0 0 32 32">
  <g fill="currentColor">
    <circle cx="7.5" cy="4.5" r=".5"></circle>
    <circle cx="5.5" cy="4.5" r=".5"></circle>
    <circle cx="3.5" cy="4.5" r=".5"></circle>
    <path d="M30.5 7h-29a.5.5 0 0 1 0-1h29a.5.5 0 0 1 0 1z"></path>
    <path d="M29.5 28h-2a.5.5 0 0 1 0-1h2a.5.5 0 0 0 .5-.5v-23a.5.5 0 0 0-.5-.5h-27a.5.5 0 0 0-.5.5v23a.5.5 0 0 0 .5.5h2a.5.5 0 0 1 0 1h-2c-.827 0-1.5-.673-1.5-1.5v-23C1 2.673 1.673 2 2.5 2h27c.827 0 1.5.673 1.5 1.5v23c0 .827-.673 1.5-1.5 1.5z"></path>
    <path d="M24.5 29h-17c-.574 0-1.041-.23-1.28-.632-.239-.401-.22-.921.053-1.426l6.6-12.209a.5.5 0 1 1 .88.475l-6.6 12.21c-.098.182-.126.35-.074.438S7.293 28 7.5 28h17c.207 0 .368-.055.42-.144s.024-.257-.074-.438l-8.573-15.862c-.224-.412-.323-.413-.547.001l-.623 1.15a.5.5 0 0 1-.88-.477l.623-1.15c.555-1.023 1.752-1.023 2.307 0l8.573 15.862c.273.504.292 1.023.053 1.425-.238.403-.705.633-1.279.633z"></path>
    <path d="M16 23a.498.498 0 0 1-.481-.365c-.042-.15-1.019-3.666-1.019-5.135 0-.827.673-1.5 1.5-1.5s1.5.673 1.5 1.5c0 1.511-.977 4.988-1.019 5.136A.499.499 0 0 1 16 23zm0-6a.5.5 0 0 0-.5.5c0 .68.253 1.923.502 2.981.248-1.05.498-2.284.498-2.981a.5.5 0 0 0-.5-.5zM16 27c-.827 0-1.5-.673-1.5-1.5S15.173 24 16 24s1.5.673 1.5 1.5S16.827 27 16 27zm0-2a.5.5 0 1 0 .002 1.002A.5.5 0 0 0 16 25z"></path>
  </g>
</svg>
