<svg width="1em" height="1em" xmlns="http://www.w3.org/2000/svg" xml:space="preserve" viewBox="0 0 32 32" >
  <g fill="currentColor">
    <circle cx="7.5" cy="4.5" r=".5"></circle>
    <circle cx="5.5" cy="4.5" r=".5"></circle>
    <circle cx="3.5" cy="4.5" r=".5"></circle>
    <path d="M30.5 7h-27a.5.5 0 0 1 0-1h27a.5.5 0 0 1 0 1z"></path>
    <path d="M30.5 22a.5.5 0 0 1-.5-.5v-18a.5.5 0 0 0-.5-.5h-27a.5.5 0 0 0-.5.5v16a.5.5 0 0 1-1 0v-16C1 2.673 1.673 2 2.5 2h27c.827 0 1.5.673 1.5 1.5v18a.5.5 0 0 1-.5.5zm-9 9h-11a.5.5 0 0 1 0-1h1c.827 0 1.5-.673 1.5-1.5v-1a.5.5 0 0 1 1 0v1c0 .563-.187 1.082-.501 1.5h5.002A2.489 2.489 0 0 1 18 28.5v-3a.5.5 0 0 1 1 0v3c0 .827.673 1.5 1.5 1.5h1a.5.5 0 0 1 0 1z"></path>
    <path d="M29.5 26h-27c-.827 0-1.5-.673-1.5-1.5v-3a.5.5 0 0 1 .5-.5h29a.5.5 0 0 1 .5.5v3c0 .827-.673 1.5-1.5 1.5zM2 22v2.5a.5.5 0 0 0 .5.5h27a.5.5 0 0 0 .5-.5V22H2zm26.5-7h-25a.5.5 0 0 1-.5-.5v-6a.5.5 0 0 1 .5-.5h25a.5.5 0 0 1 .5.5v6a.5.5 0 0 1-.5.5zM4 14h24V9H4v5zm24.5 3h-11a.5.5 0 0 1 0-1h11a.5.5 0 0 1 0 1zm0 2h-11a.5.5 0 0 1 0-1h11a.5.5 0 0 1 0 1zm-14-2h-11a.5.5 0 0 1 0-1h11a.5.5 0 0 1 0 1zm0 2h-11a.5.5 0 0 1 0-1h11a.5.5 0 0 1 0 1z"></path>
  </g>
</svg>
