<svg xmlns="http://www.w3.org/2000/svg" width="1663" height="340" version="1.2" viewBox="0 0 1663 340">
  <style>
    .s0{fill:#fff}
  </style>
  <path fill-rule="evenodd" d="M1022.7 188.8c0 34.3-23.4 62.9-77.2 62.9H835.9l-41.8-52.3h-6.4v13.5c0 26.8 3.4 31.7 24.4 31.7v7.1h-74.9v-7.1c21.1 0 24.5-4.9 24.5-31.7v-48.2c0-26.7-3.4-31.3-24.5-31.3v-7.1h66.3c33.1 0 50.8 15.8 50.8 36.5 0 16.6-12.4 31.3-35.7 35.4l17.3 18.9c15 16.5 26 25.2 42.2 27.5 21.1 0 24.4-4.9 24.4-31.7v-48.2c0-26.7-3.3-31.3-24.4-31.3v-7.1h67.4c53.8 0 77.2 28.2 77.2 62.5zm-219.6-1.1c17 0 24.5-11.7 24.5-24.9 0-13.5-7.5-25.2-24.5-25.2h-15.4v50.1zm189.8.7c0-22.2-7.2-50.8-46.3-50.8h-18.1v81.7c0 17.4 1.9 20.7 15.4 20.7h2.7c39.1 0 46.3-28.6 46.3-51.6z" class="s0"/>
  <path d="m527.4 201.6 26-76.8c7.5-22.2 4.2-28.6-20-28.6v-7.6h70.9v7.6c-23.8 0-29.4 5.6-38.8 33.1l-43 128.8h-4.9l-38.4-117.9L440 258.1h-4.9l-41.8-128.8c-9-27.5-15-33.1-36.9-33.1v-7.6H440v7.6c-22.2 0-28.2 5.2-20.3 28.6l25.2 76.8 38.1-113h7.1z" class="s0"/>
  <path fill-rule="evenodd" d="M655.5 256.6c-41.5 0-75.4-30.5-75.4-67.8 0-36.9 33.9-67.4 75.4-67.4 41.4 0 75.3 30.5 75.3 67.4 0 37.3-33.9 67.8-75.3 67.8zm0-123.5c-34.7 0-46.7 31.2-46.7 55.7 0 24.9 12 55.8 46.7 55.8 35 0 47.1-30.9 47.1-55.8 0-24.5-12.1-55.7-47.1-55.7zM1115.7 244.2v7.5h-86.2v-7.5c25.2 0 29.7-6.4 29.7-44.1v-60.2c0-37.7-4.5-43.7-29.7-43.7v-7.6h77.9c38.8 0 60.3 20 60.3 46.7 0 26-21.5 46.4-60.3 46.4H1086v18.4c0 37.7 4.5 44.1 29.7 44.1zm-8.3-142H1086v65.5h21.4c21.1 0 30.9-14.7 30.9-32.4 0-18-9.8-33.1-30.9-33.1zM1432.1 216.3l-2.3 35.4H1275l-41.8-52.3h-6.4v13.5c0 26.8 3.4 31.7 24.5 31.7v7.1h-74.9v-7.1c21 0 24.4-4.9 24.4-31.7v-48.2c0-26.7-3.4-31.3-24.4-31.3v-7.1h66.2c33.2 0 50.9 15.8 50.9 36.5 0 16.6-12.4 31.3-35.8 35.4l17.3 18.9c14.9 16.3 25.7 24.9 41.5 27.3 16.7-.9 19.5-7 19.5-31.5v-48.2c0-26.7-3.3-31.3-24.4-31.3v-7.1h110.7l2.6 35.4h-6l-1.9-7.2c-3.4-12.4-7.5-16.9-34.3-16.9H1362v42.2c29.4 0 31.7-2.7 31.7-22.2h7.1v56.1h-7.1c0-19.6-2.3-22.2-31.7-22.2v17.3c0 26.7 3.4 31.2 23 31.2h5.3c26.7 0 30.9-4.5 34.3-16.9l1.8-6.8zm-189.8-28.6c17 0 24.5-11.7 24.5-24.9 0-13.5-7.5-25.2-24.5-25.2h-15.4v50.1z" class="s0"/>
  <path d="M1502.9 256.6c-15.1 0-28.3-7.9-33.9-12.8-1.9 1.9-5.3 7.5-6 12.8h-7.2v-52h7.5c3.1 24.9 20.4 39.6 42.6 39.6 12.1 0 21.9-6.8 21.9-18.1 0-9.8-8.7-17.3-24.2-24.5l-21.4-10.1c-15.1-7.2-26.4-19.6-26.4-36.2 0-18.1 17-33.5 40.3-33.5 12.4 0 23 4.5 29.4 9.8 1.9-1.5 3.8-5.7 4.9-10.2h7.1v44.4h-7.9c-2.6-17.7-12.4-32.4-32.4-32.4-10.5 0-20.3 6.1-20.3 15.5 0 9.8 7.9 15.1 26 23.3l20.7 10.2c18.1 8.7 25.2 22.6 25.2 33.9 0 23.7-20.7 40.3-45.9 40.3zM1616.8 256.6c-15.1 0-28.3-7.9-33.9-12.8-1.9 1.9-5.3 7.5-6 12.8h-7.2v-52h7.5c3 24.9 20.4 39.6 42.6 39.6 12 0 21.8-6.8 21.8-18.1 0-9.8-8.6-17.3-24.1-24.5l-21.4-10.1c-15.1-7.2-26.4-19.6-26.4-36.2 0-18.1 16.9-33.5 40.3-33.5 12.4 0 23 4.5 29.4 9.8 1.9-1.5 3.7-5.7 4.9-10.2h7.1v44.4h-7.9c-2.6-17.7-12.4-32.4-32.4-32.4-10.5 0-20.3 6.1-20.3 15.5 0 9.8 7.9 15.1 26 23.3l20.7 10.2c18.1 8.7 25.2 22.6 25.2 33.9 0 23.7-20.7 40.3-45.9 40.3z" class="s0"/>
  <path fill-rule="evenodd" d="M339.5 170c0 93.6-75.9 169.5-169.5 169.5S.5 263.6.5 170 76.4.5 170 .5 339.5 76.4 339.5 170zM108 23.2c-9.5 4-18.6 8.9-27.1 14.7-8.4 5.7-16.4 12.2-23.6 19.4-7.2 7.2-13.7 15.2-19.4 23.6-5.8 8.5-10.7 17.6-14.7 27.1-8.3 19.6-12.5 40.5-12.5 62s4.2 42.4 12.5 62c4 9.4 8.9 18.5 14.7 27.1 5.7 8.4 12.2 16.3 19.4 23.5 7.2 7.3 15.2 13.8 23.6 19.5 8.5 5.8 17.6 10.7 27.1 14.7 19.6 8.3 40.5 12.5 62 12.5s42.4-4.2 62-12.5c9.4-4 18.5-8.9 27.1-14.7 8.4-5.7 16.3-12.2 23.5-19.5 7.3-7.2 13.8-15.1 19.5-23.5 5.8-8.6 10.7-17.7 14.7-27.1 8.3-19.6 12.5-40.5 12.5-62s-4.2-42.4-12.5-62c-4-9.5-8.9-18.6-14.7-27.1-5.7-8.4-12.2-16.4-19.5-23.6-7.2-7.2-15.1-13.7-23.5-19.4-8.6-5.8-17.7-10.7-27.1-14.7-19.6-8.3-40.5-12.5-62-12.5s-42.4 4.2-62 12.5z" class="s0"/>
  <path d="M28.7 170c0 55.9 32.5 104.2 79.6 127.1L41 112.5c-7.9 17.6-12.3 37-12.3 57.5zm236.6-7.1c0-17.5-6.2-29.6-11.6-39-7.2-11.6-13.9-21.5-13.9-33.1 0-13 9.9-25.1 23.7-25.1.7 0 1.3.1 1.9.1-25.2-23-58.6-37.1-95.4-37.1-49.4 0-92.8 25.4-118 63.7 3.3.1 6.4.2 9.1.2 14.7 0 37.6-1.8 37.6-1.8 7.6-.5 8.5 10.7.9 11.6 0 0-7.6.9-16.2 1.4l51.5 152.9 30.9-92.7-22-60.2c-7.6-.5-14.8-1.4-14.8-1.4-7.6-.4-6.7-12.1.9-11.6 0 0 23.3 1.8 37.2 1.8 14.7 0 37.6-1.8 37.6-1.8 7.6-.5 8.5 10.7.9 11.6 0 0-7.6.9-16.1 1.4l51 151.8 14.6-46.2c6.4-20.2 10.2-34.5 10.2-46.5zm-92.8 19.4-42.4 123.2c12.6 3.7 26 5.7 39.9 5.7 16.4 0 32.2-2.8 46.9-8q-.6-.9-1-1.9zm121.4-80.1c.6 4.5 1 9.3 1 14.5 0 14.3-2.7 30.4-10.8 50.6L241 292c42-24.5 70.2-70 70.2-122.1 0-24.5-6.2-47.6-17.3-67.7z" class="s0"/>
</svg>
